<?xml version="1.0" encoding="UTF-8"?>
<svg xmlns:xhtml="http://www.w3.org/1999/xhtml" xmlns:xlink="http://www.w3.org/1999/xlink" id="mermaid-svg-36" width="100%" xmlns="http://www.w3.org/2000/svg" class="flowchart" style="max-width: 100%;" viewBox="-73.29812011718751 -73.29812011718751 1612.5586425781248 2872.346240234375" height="100%"><style>#mermaid-svg-36{font-family:"trebuchet ms",verdana,arial,sans-serif;font-size:16px;fill:#333;}@keyframes edge-animation-frame{from{stroke-dashoffset:0;}}@keyframes dash{to{stroke-dashoffset:0;}}#mermaid-svg-36 .edge-animation-slow{stroke-dasharray:9,5!important;stroke-dashoffset:900;animation:dash 50s linear infinite;stroke-linecap:round;}#mermaid-svg-36 .edge-animation-fast{stroke-dasharray:9,5!important;stroke-dashoffset:900;animation:dash 20s linear infinite;stroke-linecap:round;}#mermaid-svg-36 .error-icon{fill:#552222;}#mermaid-svg-36 .error-text{fill:#552222;stroke:#552222;}#mermaid-svg-36 .edge-thickness-normal{stroke-width:1px;}#mermaid-svg-36 .edge-thickness-thick{stroke-width:3.5px;}#mermaid-svg-36 .edge-pattern-solid{stroke-dasharray:0;}#mermaid-svg-36 .edge-thickness-invisible{stroke-width:0;fill:none;}#mermaid-svg-36 .edge-pattern-dashed{stroke-dasharray:3;}#mermaid-svg-36 .edge-pattern-dotted{stroke-dasharray:2;}#mermaid-svg-36 .marker{fill:#333333;stroke:#333333;}#mermaid-svg-36 .marker.cross{stroke:#333333;}#mermaid-svg-36 svg{font-family:"trebuchet ms",verdana,arial,sans-serif;font-size:16px;}#mermaid-svg-36 p{margin:0;}#mermaid-svg-36 .label{font-family:"trebuchet ms",verdana,arial,sans-serif;color:#333;}#mermaid-svg-36 .cluster-label text{fill:#333;}#mermaid-svg-36 .cluster-label span{color:#333;}#mermaid-svg-36 .cluster-label span p{background-color:transparent;}#mermaid-svg-36 .label text,#mermaid-svg-36 span{fill:#333;color:#333;}#mermaid-svg-36 .node rect,#mermaid-svg-36 .node circle,#mermaid-svg-36 .node ellipse,#mermaid-svg-36 .node polygon,#mermaid-svg-36 .node path{fill:#ECECFF;stroke:#9370DB;stroke-width:1px;}#mermaid-svg-36 .rough-node .label text,#mermaid-svg-36 .node .label text,#mermaid-svg-36 .image-shape .label,#mermaid-svg-36 .icon-shape .label{text-anchor:middle;}#mermaid-svg-36 .node .katex path{fill:#000;stroke:#000;stroke-width:1px;}#mermaid-svg-36 .rough-node .label,#mermaid-svg-36 .node .label,#mermaid-svg-36 .image-shape .label,#mermaid-svg-36 .icon-shape .label{text-align:center;}#mermaid-svg-36 .node.clickable{cursor:pointer;}#mermaid-svg-36 .root .anchor path{fill:#333333!important;stroke-width:0;stroke:#333333;}#mermaid-svg-36 .arrowheadPath{fill:#333333;}#mermaid-svg-36 .edgePath .path{stroke:#333333;stroke-width:2.0px;}#mermaid-svg-36 .flowchart-link{stroke:#333333;fill:none;}#mermaid-svg-36 .edgeLabel{background-color:rgba(232,232,232, 0.8);text-align:center;}#mermaid-svg-36 .edgeLabel p{background-color:rgba(232,232,232, 0.8);}#mermaid-svg-36 .edgeLabel rect{opacity:0.5;background-color:rgba(232,232,232, 0.8);fill:rgba(232,232,232, 0.8);}#mermaid-svg-36 .labelBkg{background-color:rgba(232, 232, 232, 0.5);}#mermaid-svg-36 .cluster rect{fill:#ffffde;stroke:#aaaa33;stroke-width:1px;}#mermaid-svg-36 .cluster text{fill:#333;}#mermaid-svg-36 .cluster span{color:#333;}#mermaid-svg-36 div.mermaidTooltip{position:absolute;text-align:center;max-width:200px;padding:2px;font-family:"trebuchet ms",verdana,arial,sans-serif;font-size:12px;background:hsl(80, 100%, 96.2745098039%);border:1px solid #aaaa33;border-radius:2px;pointer-events:none;z-index:100;}#mermaid-svg-36 .flowchartTitleText{text-anchor:middle;font-size:18px;fill:#333;}#mermaid-svg-36 rect.text{fill:none;stroke-width:0;}#mermaid-svg-36 .icon-shape,#mermaid-svg-36 .image-shape{background-color:rgba(232,232,232, 0.8);text-align:center;}#mermaid-svg-36 .icon-shape p,#mermaid-svg-36 .image-shape p{background-color:rgba(232,232,232, 0.8);padding:2px;}#mermaid-svg-36 .icon-shape rect,#mermaid-svg-36 .image-shape rect{opacity:0.5;background-color:rgba(232,232,232, 0.8);fill:rgba(232,232,232, 0.8);}#mermaid-svg-36 .label-icon{display:inline-block;height:1em;overflow:visible;vertical-align:-0.125em;}#mermaid-svg-36 .node .label-icon path{fill:currentColor;stroke:revert;stroke-width:revert;}#mermaid-svg-36 :root{--mermaid-font-family:"trebuchet ms",verdana,arial,sans-serif;}</style><g><marker id="mermaid-svg-36_flowchart-v2-pointEnd" class="marker flowchart-v2" viewBox="0 0 10 10" refX="5" refY="5" markerUnits="userSpaceOnUse" markerWidth="8" markerHeight="8" orient="auto"><path d="M 0 0 L 10 5 L 0 10 z" class="arrowMarkerPath" style="stroke-width: 1px; stroke-dasharray: 1px, 0px;"/></marker><marker id="mermaid-svg-36_flowchart-v2-pointStart" class="marker flowchart-v2" viewBox="0 0 10 10" refX="4.5" refY="5" markerUnits="userSpaceOnUse" markerWidth="8" markerHeight="8" orient="auto"><path d="M 0 5 L 10 10 L 10 0 z" class="arrowMarkerPath" style="stroke-width: 1px; stroke-dasharray: 1px, 0px;"/></marker><marker id="mermaid-svg-36_flowchart-v2-circleEnd" class="marker flowchart-v2" viewBox="0 0 10 10" refX="11" refY="5" markerUnits="userSpaceOnUse" markerWidth="11" markerHeight="11" orient="auto"><circle cx="5" cy="5" r="5" class="arrowMarkerPath" style="stroke-width: 1px; stroke-dasharray: 1px, 0px;"/></marker><marker id="mermaid-svg-36_flowchart-v2-circleStart" class="marker flowchart-v2" viewBox="0 0 10 10" refX="-1" refY="5" markerUnits="userSpaceOnUse" markerWidth="11" markerHeight="11" orient="auto"><circle cx="5" cy="5" r="5" class="arrowMarkerPath" style="stroke-width: 1px; stroke-dasharray: 1px, 0px;"/></marker><marker id="mermaid-svg-36_flowchart-v2-crossEnd" class="marker cross flowchart-v2" viewBox="0 0 11 11" refX="12" refY="5.2" markerUnits="userSpaceOnUse" markerWidth="11" markerHeight="11" orient="auto"><path d="M 1,1 l 9,9 M 10,1 l -9,9" class="arrowMarkerPath" style="stroke-width: 2px; stroke-dasharray: 1px, 0px;"/></marker><marker id="mermaid-svg-36_flowchart-v2-crossStart" class="marker cross flowchart-v2" viewBox="0 0 11 11" refX="-1" refY="5.2" markerUnits="userSpaceOnUse" markerWidth="11" markerHeight="11" orient="auto"><path d="M 1,1 l 9,9 M 10,1 l -9,9" class="arrowMarkerPath" style="stroke-width: 2px; stroke-dasharray: 1px, 0px;"/></marker><g class="root"><g class="clusters"/><g class="edgePaths"><path d="M703.971,62L703.971,66.167C703.971,70.333,703.971,78.667,704.041,86.417C704.111,94.167,704.252,101.334,704.322,104.917L704.392,108.501" id="L_A_B_0" class="edge-thickness-normal edge-pattern-solid edge-thickness-normal edge-pattern-solid flowchart-link" style="" marker-end="url(#mermaid-svg-36_flowchart-v2-pointEnd)"/><path d="M596.785,282.814L513.777,306.845C430.768,330.876,264.751,378.938,181.742,413.636C98.733,448.333,98.733,469.667,98.733,489C98.733,508.333,98.733,525.667,98.733,549.479C98.733,573.292,98.733,603.583,98.733,635.875C98.733,668.167,98.733,702.458,98.733,748.938C98.733,795.417,98.733,854.083,98.733,912.75C98.733,971.417,98.733,1030.083,98.733,1082.16C98.733,1134.236,98.733,1179.722,98.733,1225.208C98.733,1270.694,98.733,1316.181,98.733,1349.59C98.733,1383,98.733,1404.333,98.733,1423.667C98.733,1443,98.733,1460.333,98.733,1481.667C98.733,1503,98.733,1528.333,98.733,1553.667C98.733,1579,98.733,1604.333,98.733,1629.667C98.733,1655,98.733,1680.333,98.733,1707.667C98.733,1735,98.733,1764.333,98.733,1795.757C98.733,1827.181,98.733,1860.694,98.733,1894.208C98.733,1927.722,98.733,1961.236,98.733,1994.66C98.733,2028.083,98.733,2061.417,98.733,2092.75C98.733,2124.083,98.733,2153.417,98.733,2182.75C98.733,2212.083,98.733,2241.417,98.733,2270.75C98.733,2300.083,98.733,2329.417,98.733,2354.75C98.733,2380.083,98.733,2401.417,98.733,2422.75C98.733,2444.083,98.733,2465.417,98.733,2483.583C98.733,2501.75,98.733,2516.75,98.733,2524.25L98.733,2531.75" id="L_B_C_0" class="edge-thickness-normal edge-pattern-solid edge-thickness-normal edge-pattern-solid flowchart-link" style="" marker-end="url(#mermaid-svg-36_flowchart-v2-pointEnd)"/><path d="M761.572,333.399L772.423,348.999C783.274,364.6,804.977,395.8,815.828,416.9C826.679,438,826.679,449,826.679,454.5L826.679,460" id="L_B_D_0" class="edge-thickness-normal edge-pattern-solid edge-thickness-normal edge-pattern-solid flowchart-link" style="" marker-end="url(#mermaid-svg-36_flowchart-v2-pointEnd)"/><path d="M826.679,518L826.679,522.167C826.679,526.333,826.679,534.667,826.749,542.417C826.82,550.167,826.96,557.334,827.03,560.917L827.101,564.501" id="L_D_E_0" class="edge-thickness-normal edge-pattern-solid edge-thickness-normal edge-pattern-solid flowchart-link" style="" marker-end="url(#mermaid-svg-36_flowchart-v2-pointEnd)"/><path d="M772.881,645.951L701.425,661.085C629.97,676.218,487.06,706.484,415.605,750.95C344.15,795.417,344.15,854.083,344.15,912.75C344.15,971.417,344.15,1030.083,344.15,1082.16C344.15,1134.236,344.15,1179.722,344.15,1225.208C344.15,1270.694,344.15,1316.181,344.15,1349.59C344.15,1383,344.15,1404.333,344.15,1423.667C344.15,1443,344.15,1460.333,344.15,1481.667C344.15,1503,344.15,1528.333,344.15,1553.667C344.15,1579,344.15,1604.333,344.15,1629.667C344.15,1655,344.15,1680.333,344.15,1707.667C344.15,1735,344.15,1764.333,344.15,1795.757C344.15,1827.181,344.15,1860.694,344.15,1894.208C344.15,1927.722,344.15,1961.236,344.15,1994.66C344.15,2028.083,344.15,2061.417,344.15,2092.75C344.15,2124.083,344.15,2153.417,344.15,2182.75C344.15,2212.083,344.15,2241.417,344.15,2270.75C344.15,2300.083,344.15,2329.417,344.15,2354.75C344.15,2380.083,344.15,2401.417,344.15,2422.75C344.15,2444.083,344.15,2465.417,344.15,2483.583C344.15,2501.75,344.15,2516.75,344.15,2524.25L344.15,2531.75" id="L_E_F_0" class="edge-thickness-normal edge-pattern-solid edge-thickness-normal edge-pattern-solid flowchart-link" style="" marker-end="url(#mermaid-svg-36_flowchart-v2-pointEnd)"/><path d="M863.914,663.516L879.322,675.721C894.73,687.927,925.546,712.339,941.029,730.128C956.511,747.917,956.66,759.084,956.735,764.667L956.809,770.25" id="L_E_G_0" class="edge-thickness-normal edge-pattern-solid edge-thickness-normal edge-pattern-solid flowchart-link" style="" marker-end="url(#mermaid-svg-36_flowchart-v2-pointEnd)"/><path d="M864.122,959.509L820.688,981.049C777.253,1002.589,690.385,1045.67,646.951,1089.953C603.517,1134.236,603.517,1179.722,603.517,1225.208C603.517,1270.694,603.517,1316.181,603.517,1349.59C603.517,1383,603.517,1404.333,603.517,1423.667C603.517,1443,603.517,1460.333,603.517,1481.667C603.517,1503,603.517,1528.333,603.517,1553.667C603.517,1579,603.517,1604.333,603.517,1629.667C603.517,1655,603.517,1680.333,603.517,1707.667C603.517,1735,603.517,1764.333,603.517,1795.757C603.517,1827.181,603.517,1860.694,603.517,1894.208C603.517,1927.722,603.517,1961.236,603.517,1994.66C603.517,2028.083,603.517,2061.417,603.517,2092.75C603.517,2124.083,603.517,2153.417,603.517,2182.75C603.517,2212.083,603.517,2241.417,603.517,2270.75C603.517,2300.083,603.517,2329.417,603.517,2354.75C603.517,2380.083,603.517,2401.417,603.517,2422.75C603.517,2444.083,603.517,2465.417,603.517,2483.583C603.517,2501.75,603.517,2516.75,603.517,2524.25L603.517,2531.75" id="L_G_H_0" class="edge-thickness-normal edge-pattern-solid edge-thickness-normal edge-pattern-solid flowchart-link" style="" marker-end="url(#mermaid-svg-36_flowchart-v2-pointEnd)"/><path d="M1015.832,993.281L1027.534,1009.192C1039.237,1025.104,1062.641,1056.927,1074.418,1078.422C1086.195,1099.917,1086.344,1111.084,1086.418,1116.667L1086.493,1122.25" id="L_G_I_0" class="edge-thickness-normal edge-pattern-solid edge-thickness-normal edge-pattern-solid flowchart-link" style="" marker-end="url(#mermaid-svg-36_flowchart-v2-pointEnd)"/><path d="M1024.827,1263.448L997.836,1279.818C970.846,1296.187,916.865,1328.927,889.874,1355.964C862.883,1383,862.883,1404.333,862.883,1423.667C862.883,1443,862.883,1460.333,862.883,1481.667C862.883,1503,862.883,1528.333,862.883,1553.667C862.883,1579,862.883,1604.333,862.883,1629.667C862.883,1655,862.883,1680.333,862.883,1707.667C862.883,1735,862.883,1764.333,862.883,1795.757C862.883,1827.181,862.883,1860.694,862.883,1894.208C862.883,1927.722,862.883,1961.236,862.883,1994.66C862.883,2028.083,862.883,2061.417,862.883,2092.75C862.883,2124.083,862.883,2153.417,862.883,2182.75C862.883,2212.083,862.883,2241.417,862.883,2270.75C862.883,2300.083,862.883,2329.417,862.883,2354.75C862.883,2380.083,862.883,2401.417,862.883,2422.75C862.883,2444.083,862.883,2465.417,862.883,2483.583C862.883,2501.75,862.883,2516.75,862.883,2524.25L862.883,2531.75" id="L_I_J_0" class="edge-thickness-normal edge-pattern-solid edge-thickness-normal edge-pattern-solid flowchart-link" style="" marker-end="url(#mermaid-svg-36_flowchart-v2-pointEnd)"/><path d="M1135.056,1276.656L1148.543,1290.825C1162.029,1304.993,1189.002,1333.33,1202.489,1352.998C1215.975,1372.667,1215.975,1383.667,1215.975,1389.167L1215.975,1394.667" id="L_I_K_0" class="edge-thickness-normal edge-pattern-solid edge-thickness-normal edge-pattern-solid flowchart-link" style="" marker-end="url(#mermaid-svg-36_flowchart-v2-pointEnd)"/><path d="M1215.975,1452.667L1215.975,1456.833C1215.975,1461,1215.975,1469.333,1215.975,1477C1215.975,1484.667,1215.975,1491.667,1215.975,1495.167L1215.975,1498.667" id="L_K_L_0" class="edge-thickness-normal edge-pattern-solid edge-thickness-normal edge-pattern-solid flowchart-link" style="" marker-end="url(#mermaid-svg-36_flowchart-v2-pointEnd)"/><path d="M1215.975,1604.667L1215.975,1608.833C1215.975,1613,1215.975,1621.333,1215.975,1629C1215.975,1636.667,1215.975,1643.667,1215.975,1647.167L1215.975,1650.667" id="L_L_M_0" class="edge-thickness-normal edge-pattern-solid edge-thickness-normal edge-pattern-solid flowchart-link" style="" marker-end="url(#mermaid-svg-36_flowchart-v2-pointEnd)"/><path d="M1215.975,1756.667L1215.975,1762.833C1215.975,1769,1215.975,1781.333,1216.049,1793.083C1216.124,1804.833,1216.273,1816,1216.347,1821.584L1216.422,1827.167" id="L_M_N_0" class="edge-thickness-normal edge-pattern-solid edge-thickness-normal edge-pattern-solid flowchart-link" style="" marker-end="url(#mermaid-svg-36_flowchart-v2-pointEnd)"/><path d="M1179.42,1921.195L1162.068,1933.454C1144.717,1945.713,1110.015,1970.232,1092.664,1987.991C1075.313,2005.75,1075.313,2016.75,1075.313,2022.25L1075.313,2027.75" id="L_N_O_0" class="edge-thickness-normal edge-pattern-solid edge-thickness-normal edge-pattern-solid flowchart-link" style="" marker-end="url(#mermaid-svg-36_flowchart-v2-pointEnd)"/><path d="M1253.53,1921.195L1270.715,1933.454C1287.899,1945.713,1322.268,1970.232,1339.453,1991.991C1356.637,2013.75,1356.637,2032.75,1356.637,2042.25L1356.637,2051.75" id="L_N_P_0" class="edge-thickness-normal edge-pattern-solid edge-thickness-normal edge-pattern-solid flowchart-link" style="" marker-end="url(#mermaid-svg-36_flowchart-v2-pointEnd)"/><path d="M1075.313,2157.75L1075.313,2161.917C1075.313,2166.083,1075.313,2174.417,1081.407,2182.396C1087.502,2190.376,1099.692,2198.002,1105.787,2201.815L1111.882,2205.629" id="L_O_Q_0" class="edge-thickness-normal edge-pattern-solid edge-thickness-normal edge-pattern-solid flowchart-link" style="" marker-end="url(#mermaid-svg-36_flowchart-v2-pointEnd)"/><path d="M1356.637,2133.75L1356.637,2141.917C1356.637,2150.083,1356.637,2166.417,1350.543,2178.396C1344.448,2190.376,1332.258,2198.002,1326.163,2201.815L1320.068,2205.629" id="L_P_Q_0" class="edge-thickness-normal edge-pattern-solid edge-thickness-normal edge-pattern-solid flowchart-link" style="" marker-end="url(#mermaid-svg-36_flowchart-v2-pointEnd)"/><path d="M1215.975,2333.75L1215.975,2337.917C1215.975,2342.083,1215.975,2350.417,1215.975,2358.083C1215.975,2365.75,1215.975,2372.75,1215.975,2376.25L1215.975,2379.75" id="L_Q_R_0" class="edge-thickness-normal edge-pattern-solid edge-thickness-normal edge-pattern-solid flowchart-link" style="" marker-end="url(#mermaid-svg-36_flowchart-v2-pointEnd)"/><path d="M1215.975,2461.75L1215.975,2465.917C1215.975,2470.083,1215.975,2478.417,1215.975,2486.083C1215.975,2493.75,1215.975,2500.75,1215.975,2504.25L1215.975,2507.75" id="L_R_S_0" class="edge-thickness-normal edge-pattern-solid edge-thickness-normal edge-pattern-solid flowchart-link" style="" marker-end="url(#mermaid-svg-36_flowchart-v2-pointEnd)"/><path d="M1215.975,2613.75L1215.975,2617.917C1215.975,2622.083,1215.975,2630.417,1121.749,2642.583C1027.523,2654.75,839.071,2670.751,744.845,2678.751L650.619,2686.751" id="L_S_T_0" class="edge-thickness-normal edge-pattern-solid edge-thickness-normal edge-pattern-solid flowchart-link" style="" marker-end="url(#mermaid-svg-36_flowchart-v2-pointEnd)"/><path d="M98.733,2589.75L98.733,2597.917C98.733,2606.083,98.733,2622.417,175.015,2638.441C251.296,2654.466,403.858,2670.182,480.14,2678.04L556.421,2685.898" id="L_C_T_0" class="edge-thickness-normal edge-pattern-solid edge-thickness-normal edge-pattern-solid flowchart-link" style="" marker-end="url(#mermaid-svg-36_flowchart-v2-pointEnd)"/><path d="M344.15,2589.75L344.15,2597.917C344.15,2606.083,344.15,2622.417,379.538,2637.678C414.926,2652.94,485.702,2667.13,521.09,2674.224L556.478,2681.319" id="L_F_T_0" class="edge-thickness-normal edge-pattern-solid edge-thickness-normal edge-pattern-solid flowchart-link" style="" marker-end="url(#mermaid-svg-36_flowchart-v2-pointEnd)"/><path d="M603.517,2589.75L603.517,2597.917C603.517,2606.083,603.517,2622.417,603.517,2634.083C603.517,2645.75,603.517,2652.75,603.517,2656.25L603.517,2659.75" id="L_H_T_0" class="edge-thickness-normal edge-pattern-solid edge-thickness-normal edge-pattern-solid flowchart-link" style="" marker-end="url(#mermaid-svg-36_flowchart-v2-pointEnd)"/><path d="M862.883,2589.75L862.883,2597.917C862.883,2606.083,862.883,2622.417,827.495,2637.678C792.107,2652.94,721.331,2667.13,685.943,2674.224L650.555,2681.319" id="L_J_T_0" class="edge-thickness-normal edge-pattern-solid edge-thickness-normal edge-pattern-solid flowchart-link" style="" marker-end="url(#mermaid-svg-36_flowchart-v2-pointEnd)"/></g><g class="edgeLabels"><g class="edgeLabel"><g class="label" transform="translate(0, 0)"><foreignObject width="0" height="0"><div style="display: table-cell; white-space: nowrap; line-height: 1.5; max-width: 200px; text-align: center;" xmlns="http://www.w3.org/1999/xhtml" class="labelBkg"><span class="edgeLabel"></span></div></foreignObject></g></g><g class="edgeLabel" transform="translate(98.73332977294922, 1553.6666717529297)"><g class="label" transform="translate(-17.900001525878906, -12)"><foreignObject width="35.80000305175781" height="24"><div style="display: table-cell; white-space: nowrap; line-height: 1.5; max-width: 200px; text-align: center;" xmlns="http://www.w3.org/1999/xhtml" class="labelBkg"><span class="edgeLabel"><p>Error</p></span></div></foreignObject></g></g><g class="edgeLabel" transform="translate(826.6791610717773, 427)"><g class="label" transform="translate(-10, -12)"><foreignObject width="20" height="24"><div style="display: table-cell; white-space: nowrap; line-height: 1.5; max-width: 200px; text-align: center;" xmlns="http://www.w3.org/1999/xhtml" class="labelBkg"><span class="edgeLabel"><p>OK</p></span></div></foreignObject></g></g><g class="edgeLabel"><g class="label" transform="translate(0, 0)"><foreignObject width="0" height="0"><div style="display: table-cell; white-space: nowrap; line-height: 1.5; max-width: 200px; text-align: center;" xmlns="http://www.w3.org/1999/xhtml" class="labelBkg"><span class="edgeLabel"></span></div></foreignObject></g></g><g class="edgeLabel" transform="translate(344.1499938964844, 1705.6666717529297)"><g class="label" transform="translate(-9.400001525878906, -12)"><foreignObject width="18.800003051757812" height="24"><div style="display: table-cell; white-space: nowrap; line-height: 1.5; max-width: 200px; text-align: center;" xmlns="http://www.w3.org/1999/xhtml" class="labelBkg"><span class="edgeLabel"><p>No</p></span></div></foreignObject></g></g><g class="edgeLabel" transform="translate(924.83666, 711.77648)"><g class="label" transform="translate(-11.333335876464844, -12)"><foreignObject width="22.666671752929688" height="24"><div style="display: table-cell; white-space: nowrap; line-height: 1.5; max-width: 200px; text-align: center;" xmlns="http://www.w3.org/1999/xhtml" class="labelBkg"><span class="edgeLabel"><p>Yes</p></span></div></foreignObject></g></g><g class="edgeLabel" transform="translate(603.5166625976562, 1793.6666717529297)"><g class="label" transform="translate(-9.400001525878906, -12)"><foreignObject width="18.800003051757812" height="24"><div style="display: table-cell; white-space: nowrap; line-height: 1.5; max-width: 200px; text-align: center;" xmlns="http://www.w3.org/1999/xhtml" class="labelBkg"><span class="edgeLabel"><p>No</p></span></div></foreignObject></g></g><g class="edgeLabel" transform="translate(1086.0458297729492, 1088.75)"><g class="label" transform="translate(-11.333335876464844, -12)"><foreignObject width="22.666671752929688" height="24"><div style="display: table-cell; white-space: nowrap; line-height: 1.5; max-width: 200px; text-align: center;" xmlns="http://www.w3.org/1999/xhtml" class="labelBkg"><span class="edgeLabel"><p>Yes</p></span></div></foreignObject></g></g><g class="edgeLabel" transform="translate(862.8833312988281, 1894.2083358764648)"><g class="label" transform="translate(-23.816665649414062, -12)"><foreignObject width="47.633331298828125" height="24"><div style="display: table-cell; white-space: nowrap; line-height: 1.5; max-width: 200px; text-align: center;" xmlns="http://www.w3.org/1999/xhtml" class="labelBkg"><span class="edgeLabel"><p>Invalid</p></span></div></foreignObject></g></g><g class="edgeLabel" transform="translate(1215.974998474121, 1361.6666717529297)"><g class="label" transform="translate(-17.366668701171875, -12)"><foreignObject width="34.73333740234375" height="24"><div style="display: table-cell; white-space: nowrap; line-height: 1.5; max-width: 200px; text-align: center;" xmlns="http://www.w3.org/1999/xhtml" class="labelBkg"><span class="edgeLabel"><p>Valid</p></span></div></foreignObject></g></g><g class="edgeLabel"><g class="label" transform="translate(0, 0)"><foreignObject width="0" height="0"><div style="display: table-cell; white-space: nowrap; line-height: 1.5; max-width: 200px; text-align: center;" xmlns="http://www.w3.org/1999/xhtml" class="labelBkg"><span class="edgeLabel"></span></div></foreignObject></g></g><g class="edgeLabel"><g class="label" transform="translate(0, 0)"><foreignObject width="0" height="0"><div style="display: table-cell; white-space: nowrap; line-height: 1.5; max-width: 200px; text-align: center;" xmlns="http://www.w3.org/1999/xhtml" class="labelBkg"><span class="edgeLabel"></span></div></foreignObject></g></g><g class="edgeLabel"><g class="label" transform="translate(0, 0)"><foreignObject width="0" height="0"><div style="display: table-cell; white-space: nowrap; line-height: 1.5; max-width: 200px; text-align: center;" xmlns="http://www.w3.org/1999/xhtml" class="labelBkg"><span class="edgeLabel"></span></div></foreignObject></g></g><g class="edgeLabel" transform="translate(1075.3125, 1994.75)"><g class="label" transform="translate(-9.191665649414062, -12)"><foreignObject width="18.383331298828125" height="24"><div style="display: table-cell; white-space: nowrap; line-height: 1.5; max-width: 200px; text-align: center;" xmlns="http://www.w3.org/1999/xhtml" class="labelBkg"><span class="edgeLabel"><p>DE</p></span></div></foreignObject></g></g><g class="edgeLabel" transform="translate(1356.6374969482422, 1994.75)"><g class="label" transform="translate(-9.300003051757812, -12)"><foreignObject width="18.600006103515625" height="24"><div style="display: table-cell; white-space: nowrap; line-height: 1.5; max-width: 200px; text-align: center;" xmlns="http://www.w3.org/1999/xhtml" class="labelBkg"><span class="edgeLabel"><p>TR</p></span></div></foreignObject></g></g><g class="edgeLabel"><g class="label" transform="translate(0, 0)"><foreignObject width="0" height="0"><div style="display: table-cell; white-space: nowrap; line-height: 1.5; max-width: 200px; text-align: center;" xmlns="http://www.w3.org/1999/xhtml" class="labelBkg"><span class="edgeLabel"></span></div></foreignObject></g></g><g class="edgeLabel"><g class="label" transform="translate(0, 0)"><foreignObject width="0" height="0"><div style="display: table-cell; white-space: nowrap; line-height: 1.5; max-width: 200px; text-align: center;" xmlns="http://www.w3.org/1999/xhtml" class="labelBkg"><span class="edgeLabel"></span></div></foreignObject></g></g><g class="edgeLabel"><g class="label" transform="translate(0, 0)"><foreignObject width="0" height="0"><div style="display: table-cell; white-space: nowrap; line-height: 1.5; max-width: 200px; text-align: center;" xmlns="http://www.w3.org/1999/xhtml" class="labelBkg"><span class="edgeLabel"></span></div></foreignObject></g></g><g class="edgeLabel"><g class="label" transform="translate(0, 0)"><foreignObject width="0" height="0"><div style="display: table-cell; white-space: nowrap; line-height: 1.5; max-width: 200px; text-align: center;" xmlns="http://www.w3.org/1999/xhtml" class="labelBkg"><span class="edgeLabel"></span></div></foreignObject></g></g><g class="edgeLabel"><g class="label" transform="translate(0, 0)"><foreignObject width="0" height="0"><div style="display: table-cell; white-space: nowrap; line-height: 1.5; max-width: 200px; text-align: center;" xmlns="http://www.w3.org/1999/xhtml" class="labelBkg"><span class="edgeLabel"></span></div></foreignObject></g></g><g class="edgeLabel"><g class="label" transform="translate(0, 0)"><foreignObject width="0" height="0"><div style="display: table-cell; white-space: nowrap; line-height: 1.5; max-width: 200px; text-align: center;" xmlns="http://www.w3.org/1999/xhtml" class="labelBkg"><span class="edgeLabel"></span></div></foreignObject></g></g><g class="edgeLabel"><g class="label" transform="translate(0, 0)"><foreignObject width="0" height="0"><div style="display: table-cell; white-space: nowrap; line-height: 1.5; max-width: 200px; text-align: center;" xmlns="http://www.w3.org/1999/xhtml" class="labelBkg"><span class="edgeLabel"></span></div></foreignObject></g></g><g class="edgeLabel"><g class="label" transform="translate(0, 0)"><foreignObject width="0" height="0"><div style="display: table-cell; white-space: nowrap; line-height: 1.5; max-width: 200px; text-align: center;" xmlns="http://www.w3.org/1999/xhtml" class="labelBkg"><span class="edgeLabel"></span></div></foreignObject></g></g><g class="edgeLabel"><g class="label" transform="translate(0, 0)"><foreignObject width="0" height="0"><div style="display: table-cell; white-space: nowrap; line-height: 1.5; max-width: 200px; text-align: center;" xmlns="http://www.w3.org/1999/xhtml" class="labelBkg"><span class="edgeLabel"></span></div></foreignObject></g></g></g><g class="nodes"><g class="node default" id="flowchart-A-0" transform="translate(703.9708290100098, 35)"><rect class="basic label-container" style="" x="-47.508331298828125" y="-27" width="95.01666259765625" height="54"/><g class="label" style="" transform="translate(-17.508331298828125, -12)"><rect/><foreignObject width="35.01666259765625" height="24"><div style="display: table-cell; white-space: nowrap; line-height: 1.5; max-width: 200px; text-align: center;" xmlns="http://www.w3.org/1999/xhtml"><span class="nodeLabel"><p>Start</p></span></div></foreignObject></g></g><g class="node default" id="flowchart-B-1" transform="translate(703.9708290100098, 251)"><polygon points="139,0 278,-139 139,-278 0,-139" class="label-container" transform="translate(-138.5, 139)"/><g class="label" style="" transform="translate(-100, -24)"><rect/><foreignObject width="200" height="48"><div style="display: table; white-space: break-spaces; line-height: 1.5; max-width: 200px; text-align: center; width: 200px;" xmlns="http://www.w3.org/1999/xhtml"><span class="nodeLabel"><p>Check command line arguments</p></span></div></foreignObject></g></g><g class="node default" id="flowchart-C-3" transform="translate(98.73332977294922, 2562.75)"><rect class="basic label-container" style="" x="-90.73332977294922" y="-27" width="181.46665954589844" height="54"/><g class="label" style="" transform="translate(-60.73332977294922, -12)"><rect/><foreignObject width="121.46665954589844" height="24"><div style="display: table-cell; white-space: nowrap; line-height: 1.5; max-width: 200px; text-align: center;" xmlns="http://www.w3.org/1999/xhtml"><span class="nodeLabel"><p>Show help &amp; exit</p></span></div></foreignObject></g></g><g class="node default" id="flowchart-D-5" transform="translate(826.6791610717773, 491)"><rect class="basic label-container" style="" x="-82.75833129882812" y="-27" width="165.51666259765625" height="54"/><g class="label" style="" transform="translate(-52.758331298828125, -12)"><rect/><foreignObject width="105.51666259765625" height="24"><div style="display: table-cell; white-space: nowrap; line-height: 1.5; max-width: 200px; text-align: center;" xmlns="http://www.w3.org/1999/xhtml"><span class="nodeLabel"><p>Load Excel file</p></span></div></foreignObject></g></g><g class="node default" id="flowchart-E-7" transform="translate(826.6791610717773, 633.875)"><polygon points="65.875,0 131.75,-65.875 65.875,-131.75 0,-65.875" class="label-container" transform="translate(-65.375, 65.875)"/><g class="label" style="" transform="translate(-38.875, -12)"><rect/><foreignObject width="77.75" height="24"><div style="display: table-cell; white-space: nowrap; line-height: 1.5; max-width: 200px; text-align: center;" xmlns="http://www.w3.org/1999/xhtml"><span class="nodeLabel"><p>File exists?</p></span></div></foreignObject></g></g><g class="node default" id="flowchart-F-9" transform="translate(344.1499938964844, 2562.75)"><rect class="basic label-container" style="" x="-104.68333435058594" y="-27" width="209.36666870117188" height="54"/><g class="label" style="" transform="translate(-74.68333435058594, -12)"><rect/><foreignObject width="149.36666870117188" height="24"><div style="display: table-cell; white-space: nowrap; line-height: 1.5; max-width: 200px; text-align: center;" xmlns="http://www.w3.org/1999/xhtml"><span class="nodeLabel"><p>Error message &amp; exit</p></span></div></foreignObject></g></g><g class="node default" id="flowchart-G-11" transform="translate(956.3624954223633, 912.75)"><polygon points="139,0 278,-139 139,-278 0,-139" class="label-container" transform="translate(-138.5, 139)"/><g class="label" style="" transform="translate(-100, -24)"><rect/><foreignObject width="200" height="48"><div style="display: table; white-space: break-spaces; line-height: 1.5; max-width: 200px; text-align: center; width: 200px;" xmlns="http://www.w3.org/1999/xhtml"><span class="nodeLabel"><p>Column 'phonems_IPA' exists?</p></span></div></foreignObject></g></g><g class="node default" id="flowchart-H-13" transform="translate(603.5166625976562, 2562.75)"><rect class="basic label-container" style="" x="-104.68333435058594" y="-27" width="209.36666870117188" height="54"/><g class="label" style="" transform="translate(-74.68333435058594, -12)"><rect/><foreignObject width="149.36666870117188" height="24"><div style="display: table-cell; white-space: nowrap; line-height: 1.5; max-width: 200px; text-align: center;" xmlns="http://www.w3.org/1999/xhtml"><span class="nodeLabel"><p>Error message &amp; exit</p></span></div></foreignObject></g></g><g class="node default" id="flowchart-I-15" transform="translate(1086.0458297729492, 1225.2083358764648)"><polygon points="99.45833587646484,0 198.9166717529297,-99.45833587646484 99.45833587646484,-198.9166717529297 0,-99.45833587646484" class="label-container" transform="translate(-98.95833587646484, 99.45833587646484)"/><g class="label" style="" transform="translate(-72.45833587646484, -12)"><rect/><foreignObject width="144.9166717529297" height="24"><div style="display: table-cell; white-space: nowrap; line-height: 1.5; max-width: 200px; text-align: center;" xmlns="http://www.w3.org/1999/xhtml"><span class="nodeLabel"><p>Language: DE or TR?</p></span></div></foreignObject></g></g><g class="node default" id="flowchart-J-17" transform="translate(862.8833312988281, 2562.75)"><rect class="basic label-container" style="" x="-104.68333435058594" y="-27" width="209.36666870117188" height="54"/><g class="label" style="" transform="translate(-74.68333435058594, -12)"><rect/><foreignObject width="149.36666870117188" height="24"><div style="display: table-cell; white-space: nowrap; line-height: 1.5; max-width: 200px; text-align: center;" xmlns="http://www.w3.org/1999/xhtml"><span class="nodeLabel"><p>Error message &amp; exit</p></span></div></foreignObject></g></g><g class="node default" id="flowchart-K-19" transform="translate(1215.974998474121, 1425.6666717529297)"><rect class="basic label-container" style="" x="-88.40833282470703" y="-27" width="176.81666564941406" height="54"/><g class="label" style="" transform="translate(-58.40833282470703, -12)"><rect/><foreignObject width="116.81666564941406" height="24"><div style="display: table-cell; white-space: nowrap; line-height: 1.5; max-width: 200px; text-align: center;" xmlns="http://www.w3.org/1999/xhtml"><span class="nodeLabel"><p>Load DataFrame</p></span></div></foreignObject></g></g><g class="node default" id="flowchart-L-21" transform="translate(1215.974998474121, 1553.6666717529297)"><rect class="basic label-container" style="" x="-99.71666717529297" y="-51" width="199.43333435058594" height="102"/><g class="label" style="" transform="translate(-69.71666717529297, -36)"><rect/><foreignObject width="139.43333435058594" height="72"><div style="display: table-cell; white-space: nowrap; line-height: 1.5; max-width: 200px; text-align: center;" xmlns="http://www.w3.org/1999/xhtml"><span class="nodeLabel"><p>count_words:<br />Split by whitespace<br />Count elements</p></span></div></foreignObject></g></g><g class="node default" id="flowchart-M-23" transform="translate(1215.974998474121, 1705.6666717529297)"><rect class="basic label-container" style="" x="-110.3499984741211" y="-51" width="220.6999969482422" height="102"/><g class="label" style="" transform="translate(-80.3499984741211, -36)"><rect/><foreignObject width="160.6999969482422" height="72"><div style="display: table-cell; white-space: nowrap; line-height: 1.5; max-width: 200px; text-align: center;" xmlns="http://www.w3.org/1999/xhtml"><span class="nodeLabel"><p>count_phonemes:<br />Remove IPA diacritics<br />Count remaining chars</p></span></div></foreignObject></g></g><g class="node default" id="flowchart-N-25" transform="translate(1215.974998474121, 1894.2083358764648)"><polygon points="63.541664123535156,0 127.08332824707031,-63.541664123535156 63.541664123535156,-127.08332824707031 0,-63.541664123535156" class="label-container" transform="translate(-63.041664123535156, 63.541664123535156)"/><g class="label" style="" transform="translate(-36.541664123535156, -12)"><rect/><foreignObject width="73.08332824707031" height="24"><div style="display: table-cell; white-space: nowrap; line-height: 1.5; max-width: 200px; text-align: center;" xmlns="http://www.w3.org/1999/xhtml"><span class="nodeLabel"><p>Language?</p></span></div></foreignObject></g></g><g class="node default" id="flowchart-O-27" transform="translate(1075.3125, 2094.75)"><rect class="basic label-container" style="" x="-130" y="-63" width="260" height="126"/><g class="label" style="" transform="translate(-100, -48)"><rect/><foreignObject width="200" height="96"><div style="display: table; white-space: break-spaces; line-height: 1.5; max-width: 200px; text-align: center; width: 200px;" xmlns="http://www.w3.org/1999/xhtml"><span class="nodeLabel"><p>count_syllables_DE:<br />Replace diphthongs with '1'<br />Count '1' + remaining vowels</p></span></div></foreignObject></g></g><g class="node default" id="flowchart-P-29" transform="translate(1356.6374969482422, 2094.75)"><rect class="basic label-container" style="" x="-101.32499694824219" y="-39" width="202.64999389648438" height="78"/><g class="label" style="" transform="translate(-71.32499694824219, -24)"><rect/><foreignObject width="142.64999389648438" height="48"><div style="display: table-cell; white-space: nowrap; line-height: 1.5; max-width: 200px; text-align: center;" xmlns="http://www.w3.org/1999/xhtml"><span class="nodeLabel"><p>count_syllables_TR:<br />Count all vowels</p></span></div></foreignObject></g></g><g class="node default" id="flowchart-Q-31" transform="translate(1215.974998474121, 2270.75)"><rect class="basic label-container" style="" x="-107.875" y="-63" width="215.75" height="126"/><g class="label" style="" transform="translate(-77.875, -48)"><rect/><foreignObject width="155.75" height="96"><div style="display: table-cell; white-space: nowrap; line-height: 1.5; max-width: 200px; text-align: center;" xmlns="http://www.w3.org/1999/xhtml"><span class="nodeLabel"><p>Create new columns:<br />n_words_counted<br />n_phonemes_counted<br />n_syllables_counted</p></span></div></foreignObject></g></g><g class="node default" id="flowchart-R-35" transform="translate(1215.974998474121, 2422.75)"><rect class="basic label-container" style="" x="-112.55000305175781" y="-39" width="225.10000610351562" height="78"/><g class="label" style="" transform="translate(-82.55000305175781, -24)"><rect/><foreignObject width="165.10000610351562" height="48"><div style="display: table-cell; white-space: nowrap; line-height: 1.5; max-width: 200px; text-align: center;" xmlns="http://www.w3.org/1999/xhtml"><span class="nodeLabel"><p>Save as<br />counted_[original].xlsx</p></span></div></foreignObject></g></g><g class="node default" id="flowchart-S-37" transform="translate(1215.974998474121, 2562.75)"><rect class="basic label-container" style="" x="-105.17500305175781" y="-51" width="210.35000610351562" height="102"/><g class="label" style="" transform="translate(-75.17500305175781, -36)"><rect/><foreignObject width="150.35000610351562" height="72"><div style="display: table-cell; white-space: nowrap; line-height: 1.5; max-width: 200px; text-align: center;" xmlns="http://www.w3.org/1999/xhtml"><span class="nodeLabel"><p>Display statistics:<br />Total rows<br />Sample data preview</p></span></div></foreignObject></g></g><g class="node default" id="flowchart-T-39" transform="translate(603.5166625976562, 2690.75)"><rect class="basic label-container" style="" x="-43.116668701171875" y="-27" width="86.23333740234375" height="54"/><g class="label" style="" transform="translate(-13.116668701171875, -12)"><rect/><foreignObject width="26.23333740234375" height="24"><div style="display: table-cell; white-space: nowrap; line-height: 1.5; max-width: 200px; text-align: center;" xmlns="http://www.w3.org/1999/xhtml"><span class="nodeLabel"><p>End</p></span></div></foreignObject></g></g></g></g></g></svg>